<svg viewBox="0 0 24 24" xmlns="http://www.w3.org/2000/svg" fill="currentColor">
  <path d="M22.282 9.821a5.985 5.985 0 0 0-.516-4.91 6.046 6.046 0 0 0-6.51-2.9A6.065 6.065 0 0 0 4.981 4.18a5.985 5.985 0 0 0-3.998 2.9 6.046 6.046 0 0 0 .743 7.097 5.98 5.98 0 0 0 .51 4.911 6.051 6.051 0 0 0 6.515 2.9A5.985 5.985 0 0 0 13.26 24a6.056 6.056 0 0 0 5.772-4.206 5.99 5.99 0 0 0 3.997-2.9 6.056 6.056 0 0 0-.747-7.073zM13.26 22.43a4.476 4.476 0 0 1-2.876-1.04l.141-.081 4.779-2.758a.795.795 0 0 0 .392-.681v-6.737l2.02 1.168a.071.071 0 0 1 .038.052v5.583a4.504 4.504 0 0 1-4.494 4.494zM3.6 18.304a4.47 4.47 0 0 1-.535-3.014l.142.085 4.783 2.759a.771.771 0 0 0 .78 0l5.843-3.369v2.332a.08.08 0 0 1-.033.062l-4.84 2.797a4.504 4.504 0 0 1-6.14-1.652zm-1.15-10.4a4.458 4.458 0 0 1 2.336-1.97V11.5a.778.778 0 0 0 .39.677l5.829 3.365-2.02 1.168a.076.076 0 0 1-.07.006l-4.838-2.799A4.504 4.504 0 0 1 2.45 7.905zm16.5 3.882l-5.829-3.365 2.02-1.164a.076.076 0 0 1 .07-.006l4.838 2.796a4.494 4.494 0 0 1-.676 8.105v-5.678a.79.79 0 0 0-.423-.688zm2.01-3.023l-.141-.085-4.774-2.782a.776.776 0 0 0-.785 0L9.409 9.23V6.897a.066.066 0 0 1 .028-.061l4.839-2.796a4.5 4.5 0 0 1 6.68 4.66l.004.063zm-12.64 4.135l-2.02-1.164a.08.08 0 0 1-.038-.057V6.085a4.5 4.5 0 0 1 7.375-3.453l-.142.08-4.778 2.758a.795.795 0 0 0-.393.681v6.748zm1.097-2.365l2.602-1.5 2.607 1.5v2.999l-2.597 1.5-2.607-1.5z"/>
</svg>
